<svg width="104" height="110" viewBox="0 0 104 110" fill="none" xmlns="http://www.w3.org/2000/svg">
<path d="M69.3333 52.1053V17.3684L52 0L34.6667 17.3684V28.9474H0V110H104V52.1053H69.3333ZM23.1111 98.4211H11.5556V86.8421H23.1111V98.4211ZM23.1111 75.2632H11.5556V63.6842H23.1111V75.2632ZM23.1111 52.1053H11.5556V40.5263H23.1111V52.1053ZM57.7778 98.4211H46.2222V86.8421H57.7778V98.4211ZM57.7778 75.2632H46.2222V63.6842H57.7778V75.2632ZM57.7778 52.1053H46.2222V40.5263H57.7778V52.1053ZM57.7778 28.9474H46.2222V17.3684H57.7778V28.9474ZM92.4444 98.4211H80.8889V86.8421H92.4444V98.4211ZM92.4444 75.2632H80.8889V63.6842H92.4444V75.2632Z" fill="#CDCDCD"/>
</svg>
