<svg width="314" height="314" viewBox="0 0 314 314" fill="none" xmlns="http://www.w3.org/2000/svg">
<path d="M157 91.5833V39.25H26.1667V274.75H287.833V91.5833H157ZM78.5 248.583H52.3334V222.417H78.5V248.583ZM78.5 196.25H52.3334V170.083H78.5V196.25ZM78.5 143.917H52.3334V117.75H78.5V143.917ZM78.5 91.5833H52.3334V65.4167H78.5V91.5833ZM130.833 248.583H104.667V222.417H130.833V248.583ZM130.833 196.25H104.667V170.083H130.833V196.25ZM130.833 143.917H104.667V117.75H130.833V143.917ZM130.833 91.5833H104.667V65.4167H130.833V91.5833ZM261.667 248.583H157V222.417H183.167V196.25H157V170.083H183.167V143.917H157V117.75H261.667V248.583ZM235.5 143.917H209.333V170.083H235.5V143.917ZM235.5 196.25H209.333V222.417H235.5V196.25Z" fill="white" fill-opacity="0.3"/>
</svg>
