<svg width="82" height="49" viewBox="0 0 82 49" fill="none" xmlns="http://www.w3.org/2000/svg">
<path fill-rule="evenodd" clip-rule="evenodd" d="M57.303 0.279746C57.4481 0.433577 57.7384 0.732641 57.9481 0.944247C58.1578 1.15591 59.2893 2.30458 60.4625 3.49689C61.6356 4.68925 63.1021 6.17739 63.7212 6.8039C64.3404 7.43041 65.2579 8.35947 65.7601 8.86837L66.6733 9.79371L63.5874 12.8328C61.8901 14.5043 59.3462 17.0016 57.9342 18.3824C55.654 20.6122 54.9875 21.2569 53.5813 22.5936C53.1296 23.0231 51.8007 24.2627 51.6642 24.3821C51.5546 24.478 50.5439 25.4031 50.1842 25.7367C50.062 25.85 49.8061 26.0753 49.6155 26.2373C49.4249 26.3992 49.2264 26.5715 49.1743 26.6201C48.978 26.8034 48.5366 27.189 48.2307 27.4446C48.0562 27.5903 47.8841 27.7361 47.8481 27.7685C47.8122 27.8009 47.6762 27.9055 47.5458 28.0009C47.4155 28.0964 47.2955 28.1915 47.2792 28.2122C47.2629 28.2329 47.1235 28.3226 46.9693 28.4116C46.6713 28.5836 46.412 28.584 46.2688 28.4126C46.23 28.366 46.1746 28.328 46.1458 28.328C46.0997 28.328 44.9056 27.4354 44.6722 27.2264C44.6233 27.1827 44.5147 27.088 44.4308 27.0159C44.2891 26.8945 43.5787 26.2714 43.2742 26.0017C43.0973 25.845 42.1655 24.9949 41.8862 24.7355C41.7642 24.6221 41.3219 24.2113 40.9035 23.8226C40.485 23.4339 37.9168 20.9096 35.1964 18.213C32.476 15.5164 30.2347 13.31 30.2157 13.31C30.1968 13.31 25.2727 18.1799 19.2732 24.1318C13.2738 30.0838 6.48301 36.8087 4.18255 39.0761C1.88215 41.3436 0 43.2385 0 43.2871C5.92505e-05 43.3356 0.295778 43.6802 0.657206 44.0527C2.26035 45.7051 3.65256 47.1354 4.53 48.0317L5.478 49L9.85318 44.6859C12.2595 42.3131 17.8263 36.801 22.2238 32.4367L30.2192 24.5015L38.4239 32.6575C42.9365 37.1433 46.639 40.8135 46.6518 40.8135C46.6645 40.8135 52.4463 35.0768 59.5002 28.0653L72.3254 15.3171L74.0665 17.0079C76.2926 19.1697 78.092 20.9582 80.267 23.1711L82 24.9341V12.4671V0H69.5197H57.0393L57.303 0.279746Z" fill="white"/>
</svg>
